<svg xmlns="http://www.w3.org/2000/svg" width="128" height="128" viewBox="0 0 128 128">
  <title>2005 office window grid</title>
  <rect width="128" height="128" fill="#0e1a24"/>
  <g fill="#b9d3e0" opacity="0.85">
    <rect x="2" y="2" width="28" height="36"/>
    <rect x="34" y="2" width="28" height="36"/>
    <rect x="66" y="2" width="28" height="36"/>
    <rect x="98" y="2" width="28" height="36"/>
    <rect x="2" y="46" width="28" height="36"/>
    <rect x="34" y="46" width="28" height="36"/>
    <rect x="66" y="46" width="28" height="36"/>
    <rect x="98" y="46" width="28" height="36"/>
    <rect x="2" y="90" width="28" height="36"/>
    <rect x="34" y="90" width="28" height="36"/>
    <rect x="66" y="90" width="28" height="36"/>
    <rect x="98" y="90" width="28" height="36"/>
  </g>
  <g fill="#cfe4ee" opacity="0.6">
    <rect x="6" y="6" width="20" height="28"/>
    <rect x="38" y="6" width="20" height="28"/>
    <rect x="70" y="6" width="20" height="28"/>
    <rect x="102" y="6" width="20" height="28"/>
    <rect x="6" y="50" width="20" height="28"/>
    <rect x="38" y="50" width="20" height="28"/>
    <rect x="70" y="50" width="20" height="28"/>
    <rect x="102" y="50" width="20" height="28"/>
  </g>
  <g fill="#f2f8fb" opacity="0.35">
    <rect x="10" y="10" width="12" height="20"/>
    <rect x="42" y="10" width="12" height="20"/>
    <rect x="74" y="10" width="12" height="20"/>
    <rect x="106" y="10" width="12" height="20"/>
    <rect x="10" y="54" width="12" height="20"/>
    <rect x="42" y="54" width="12" height="20"/>
    <rect x="74" y="54" width="12" height="20"/>
    <rect x="106" y="54" width="12" height="20"/>
  </g>
</svg>
